<?xml version="1.0" encoding="utf-8"?>
<!-- Generator: Adobe Illustrator 19.0.0, SVG Export Plug-In . SVG Version: 6.00 Build 0)  -->
<svg version="1.1" id="Capa_1" xmlns="http://www.w3.org/2000/svg" xmlns:xlink="http://www.w3.org/1999/xlink" x="0px" y="0px"
	 viewBox="0 0 283 338" style="enable-background:new 0 0 283 338;" xml:space="preserve">
<style type="text/css">
	.st0{fill:#80B47D;}
	.st1{fill:#C6D484;}
	.st2{fill:#48817C;}
	.st3{fill:#5E5E5E;}
	.st4{fill:#C8D684;}
</style>
<g>
	<path class="st0" d="M37.7,22.3c-8.5,8.6-20.9,14.9-24.3,16.1c-3.3,1.5-5.8,1.8-7.3,2.4L5.9,68.1c12.4-2.1,21.5-6.3,25.5-8.6
		c1.8-1.2,3.3-2.4,4.9-3.6V207h35.5V8.9H48C42.9,16.3,41.4,18.4,37.7,22.3"/>
	<path class="st0" d="M124,53c0-4.2-1.8-20.6,16.4-20.9c6.7,0,12.4,2.4,14.6,9.2c0.9,2.7,1.2,6.7,1.2,9.6c2.2-3.9,4.9-7.4,8.1-10.5
		c6.7-6.6,14.4-10.5,21.3-12.8C179.3,16.5,166,6.2,139.5,6.2c-5.8,0-28.5,0-41.9,17.3c-6.4,8.3-7.9,16.4-8.5,26.5
		c0,3-0.3,5.7-0.3,8.3V76H124V53z"/>
	<path class="st0" d="M156.2,162c0,6.6,0,13.7-6.4,18.2c-1.8,1.2-5.2,2.7-10.3,2.7c-16.1,0-15.5-14.3-15.5-18.5v-34.5H88.8v30.9
		c0,11.6,1.2,16.1,3,21.8c2.7,7.7,6.7,12.2,9.1,14.6c10.9,10.4,25.8,12.5,40.1,12.5c9.1,0,15.2-1.2,18.8-2.1
		c21.2-6,27.6-22.6,29.4-30.1c1.5-5.7,1.8-9.8,1.8-15.8v-31.8h-34.9V162z"/>
	<path class="st1" d="M192,68.2c8.4-8.2,14.8-20.4,14.7-38.4c0,0-7.7-0.1-17.2,3C175.7,37.2,158,48.3,154.8,76h27.1
		C185.4,73.9,188.8,71.4,192,68.2"/>
	<g id="XMLID_73_">
		<path id="XMLID_74_" class="st2" d="M107.9,91.3c0.5,0.5,0.8,1.2,0.8,2.1v20.2c0,0.8-0.3,1.5-0.8,2.1c-0.5,0.6-1.2,0.8-2.1,0.8
			c-0.8,0-1.5-0.3-2-0.8c-0.5-0.5-0.8-1.2-0.8-2.1c-0.8,0.9-1.9,1.7-3.2,2.4c-1.4,0.7-2.8,1-4.3,1c-2.2,0-4.2-0.6-6-1.7
			c-1.8-1.1-3.2-2.7-4.2-4.7c-1-2-1.5-4.3-1.5-6.8s0.5-4.8,1.5-6.8c1-2,2.4-3.6,4.2-4.7c1.8-1.1,3.7-1.7,5.8-1.7
			c1.5,0,3,0.3,4.3,0.8c1.3,0.6,2.5,1.3,3.4,2.1v0c0-0.8,0.3-1.5,0.8-2.1c0.5-0.6,1.2-0.8,2.1-0.8C106.7,90.5,107.4,90.8,107.9,91.3
			z M101.3,109.5c1.3-1.5,2-3.4,2-5.7s-0.7-4.2-2-5.7c-1.3-1.5-3-2.3-5.1-2.3c-2,0-3.7,0.8-5,2.3c-1.3,1.5-2,3.4-2,5.7
			s0.6,4.2,1.9,5.7c1.3,1.5,3,2.3,5,2.3C98.3,111.7,100,111,101.3,109.5z"/>
		<path id="XMLID_77_" class="st2" d="M136.3,93.4c1.2,1.9,1.9,4.6,1.9,8v12.2c0,0.8-0.3,1.5-0.8,2.1c-0.5,0.6-1.2,0.8-2.1,0.8
			c-0.8,0-1.5-0.3-2.1-0.8c-0.5-0.6-0.8-1.2-0.8-2.1v-12.2c0-1.7-0.4-3.1-1.1-4.1c-0.7-1-2-1.5-3.8-1.5c-1.8,0-3.3,0.5-4.3,1.6
			c-1,1.1-1.6,2.4-1.6,4v12.2c0,0.8-0.3,1.5-0.8,2.1c-0.5,0.6-1.2,0.8-2.1,0.8c-0.8,0-1.5-0.3-2.1-0.8c-0.5-0.6-0.8-1.2-0.8-2.1
			V93.9c0-0.8,0.3-1.5,0.8-2.1c0.5-0.6,1.2-0.8,2.1-0.8c0.8,0,1.5,0.3,2.1,0.8c0.5,0.6,0.8,1.2,0.8,2.1v0.8c0.9-1.1,2-2.1,3.4-3
			c1.4-0.8,2.9-1.2,4.6-1.2C132.8,90.5,135,91.5,136.3,93.4z M118.8,87.5c-0.5-0.6-0.8-1.4-0.8-2.4c0-1.1,0.5-2.1,1.5-2.9
			c1-0.8,2.5-1.3,4.3-1.3c0.8,0,1.6,0.2,2.3,0.5c0.7,0.3,1.5,0.8,2.4,1.4c0.5,0.4,1,0.7,1.4,0.9c0.4,0.2,0.7,0.3,1,0.3
			c0.3,0,0.6-0.1,0.8-0.3c0.2-0.2,0.2-0.4,0.1-0.7c-0.1-0.2-0.1-0.4-0.1-0.7c0-0.5,0.2-0.9,0.5-1.2c0.3-0.3,0.8-0.5,1.3-0.5
			c0.7,0,1.4,0.3,1.9,0.9c0.5,0.6,0.8,1.3,0.8,2.3c0,0.6-0.2,1.2-0.6,1.9c-0.4,0.7-1,1.2-1.8,1.7c-0.8,0.5-1.8,0.7-3.1,0.7
			c-0.6,0-1.3-0.2-2-0.5c-0.7-0.3-1.5-0.8-2.5-1.3c-0.8-0.4-1.4-0.8-1.8-1s-0.8-0.3-1.2-0.3c-0.4,0-0.6,0.1-0.8,0.3
			s-0.2,0.4-0.1,0.7c0.1,0.2,0.1,0.4,0.1,0.7c0,0.5-0.2,0.9-0.5,1.2c-0.3,0.3-0.8,0.5-1.3,0.5C119.9,88.4,119.3,88.1,118.8,87.5z"/>
		<path id="XMLID_80_" class="st2" d="M168.1,110.6c-1.1,2-2.7,3.6-4.7,4.7c-2,1.1-4.2,1.7-6.6,1.7c-2.4,0-4.6-0.6-6.6-1.7
			c-2-1.1-3.5-2.7-4.7-4.7s-1.7-4.3-1.7-6.8s0.6-4.8,1.7-6.8s2.7-3.6,4.7-4.7c2-1.1,4.2-1.7,6.6-1.7c2.4,0,4.6,0.6,6.6,1.7
			c2,1.1,3.6,2.7,4.7,4.7s1.7,4.3,1.7,6.8S169.2,108.6,168.1,110.6z M163.1,99.6c-0.7-1.2-1.5-2.2-2.6-2.8s-2.3-1-3.6-1
			c-1.3,0-2.6,0.3-3.6,1s-2,1.6-2.6,2.8c-0.7,1.2-1,2.6-1,4.2s0.3,2.9,1,4.1c0.7,1.2,1.5,2.1,2.6,2.8c1.1,0.7,2.3,1,3.6,1
			c1.3,0,2.6-0.3,3.6-1c1.1-0.7,2-1.6,2.6-2.8c0.7-1.2,1-2.6,1-4.1S163.7,100.8,163.1,99.6z"/>
		<path id="XMLID_83_" class="st2" d="M173.6,111.1c0-0.8,0.4-1.5,1.2-2.1c0.4-0.3,0.9-0.4,1.4-0.4c0.7,0,1.3,0.3,1.9,0.9
			c1,1,1.9,1.7,3,2.2c1,0.5,2.3,0.7,3.7,0.7c2.5-0.1,3.7-1,3.7-2.8c0-0.9-0.4-1.6-1.3-2.1c-0.8-0.5-2.2-1-3.9-1.4
			c-1.8-0.5-3.3-1-4.5-1.5c-1.2-0.5-2.2-1.3-3-2.3c-0.8-1-1.3-2.4-1.3-4.2c0-1.5,0.4-2.9,1.3-4c0.9-1.1,2-2,3.4-2.6
			c1.4-0.6,2.9-0.9,4.5-0.9c1.6,0,3.2,0.3,4.9,0.9c1.6,0.6,2.9,1.5,3.8,2.7c0.4,0.5,0.6,1.1,0.6,1.7c0,0.7-0.3,1.3-0.9,1.8
			c-0.4,0.3-1,0.5-1.5,0.5c-0.7,0-1.3-0.2-1.7-0.7c-0.6-0.7-1.3-1.3-2.2-1.7c-0.9-0.4-1.9-0.6-3.1-0.6c-2.4,0-3.6,0.9-3.6,2.6
			c0,0.7,0.2,1.3,0.7,1.7c0.4,0.4,1,0.8,1.7,1s1.6,0.5,2.9,0.9c1.7,0.5,3.1,1,4.3,1.5c1.1,0.5,2.1,1.3,2.9,2.3
			c0.8,1,1.2,2.4,1.2,4.1c0,1.6-0.5,2.9-1.4,4.1c-0.9,1.2-2.1,2-3.6,2.6c-1.4,0.6-2.9,0.9-4.5,0.9c-2.1,0-4.1-0.3-5.9-1
			c-1.8-0.7-3.3-1.8-4.4-3.4C173.7,112.2,173.6,111.7,173.6,111.1z"/>
	</g>
</g>
<g id="XMLID_41_">
	<path id="XMLID_42_" class="st3" d="M27.3,249.2c-1.8,2.3-4.8,2.2-5.6,2.2c-3.1,0-4.7-1-5.7-2c-0.1-0.2-0.6-0.8-0.9-1.5
		c-0.3-0.9-0.4-1.8-0.4-2.7v-9.5c0-1.5,0.2-2.8,1.2-4.1c1.8-2.4,5.1-2.4,5.8-2.4c0.5,0,5,0,6.4,3.2c0.3,0.6,0.4,1.3,0.4,2.8v2.5
		h-4.9v-2.6c0-0.5,0-0.8-0.1-1c-0.1-0.5-0.6-1.4-1.8-1.3c-0.6,0-1,0.2-1.2,0.3c-0.7,0.5-0.9,1.1-0.9,2.6v9.3c0,0.8,0,1.1,0.1,1.5
		c0.3,0.9,1,1.3,1.8,1.3c0.1,0,0.7,0,1.1-0.3c0.8-0.5,0.8-1.6,0.8-2.5v-2.5h4.9v2.4C28.5,245.6,28.6,247.6,27.3,249.2z"/>
	<path id="XMLID_44_" class="st3" d="M43.5,249.2c-1.9,2.3-4.8,2.2-5.7,2.2c-1,0-1.8-0.1-2.1-0.2c-0.8-0.2-3.1-0.9-4-3.4
		c-0.3-0.7-0.4-1.4-0.4-2.9v-9.6c0-1.5,0.2-2,0.4-2.7c1-2.7,3.8-3.5,6.4-3.5c0.7,0,4.8,0,6.1,3.1c0.3,0.8,0.5,1.4,0.5,2.8v10.3
		C44.7,247,44.5,248.1,43.5,249.2z M39.8,234.9c0-1.3-0.1-1.9-0.8-2.3c-0.3-0.3-0.8-0.3-0.9-0.3c-0.5,0-0.8,0.2-1,0.3
		c-0.8,0.6-0.8,1.5-0.8,2.3v10.9c0,0.4,0,2.2,1.7,2.2c1.9,0,1.8-1.9,1.8-2.3V234.9z"/>
	<path id="XMLID_47_" class="st3" d="M65.6,251v-15.8c0-0.8,0-1.6-0.8-2.2c-0.2-0.1-0.5-0.3-1-0.3c-1.7,0-2,1.4-2,2.7V251h-4.9
		v-15.7c0-0.9,0.1-1.7-0.7-2.3c-0.3-0.3-0.7-0.4-1.2-0.4c-2,0-1.9,2.2-1.9,2.5V251h-4.9v-21.4h5v1.4c0.5-0.5,2-1.9,4.2-1.9
		c2.3,0,3.5,1.5,4,2.1c1.7-1.5,2.3-1.7,3.5-2c0.7-0.1,1-0.1,1.4-0.1c1.9,0,3.6,1,4.1,2.9c0.2,0.5,0.2,0.9,0.2,1.9v17H65.6z"/>
	<path id="XMLID_49_" class="st3" d="M87.5,249.4c-0.3,0.5-0.5,0.8-0.9,1.1c-0.5,0.4-1.3,0.9-2.8,0.9c-2,0-3.2-1-4.6-2.2v9.2h-5
		v-28.8h5v1.6c0.5-0.4,2.2-2.1,4.5-2c0.6,0,2.4,0.2,3.6,1.7c0.9,1.2,1,2.6,1,3.9v11.4C88.2,246.6,88.2,248.1,87.5,249.4z
		 M83.2,235.2c0-1.2-0.3-1.7-0.9-2c-0.2-0.1-0.5-0.3-1.1-0.3c-0.4,0-0.8,0.1-1.1,0.3c-0.8,0.5-0.9,1.3-0.9,2.2v9.6
		c0,0.2,0,0.7,0.2,1.2c0.4,1.1,1.5,1.2,1.9,1.2c1,0,1.6-0.6,1.8-1c0.2-0.5,0.2-1.1,0.2-1.2V235.2z"/>
	<path id="XMLID_52_" class="st3" d="M100.3,251c-0.4-0.5-0.5-0.8-0.6-1.9c-0.3,0.3-0.5,0.5-0.8,0.8c-0.5,0.5-1.6,1.5-3.6,1.5
		c-0.4,0-1.6,0-2.6-0.8c-1.8-1.3-1.6-3.8-1.6-5.7c0-1.5-0.1-3.1,1-4.4c0.6-0.7,1.4-1.2,2.3-1.6l5.2-2.6v-1.3c0-1.3-0.1-1.9-0.7-2.3
		c-0.2-0.1-0.5-0.3-1.1-0.3c-0.2,0-1.2,0-1.5,0.8c-0.2,0.4-0.2,1.1-0.2,2v0.8h-4.6v-2.4c0-0.5,0.1-2,1.2-3c0.9-0.9,2.6-1.6,5.4-1.6
		c0.6,0,4.3,0,5.8,2.7c0.5,0.9,0.5,1.7,0.5,2v11.9c0,1.2-0.1,3.8,0.6,4.8c0,0.1,0.1,0.2,0.3,0.4H100.3z M99.6,240.2l-2.4,1.6
		c-0.2,0.1-0.4,0.3-0.4,0.3c-0.6,0.6-0.7,1.4-0.7,3.1c0,1.6,0.2,2.5,1.2,2.5c0.7,0,1.3-0.3,1.8-0.8l0.5-0.5V240.2z"/>
	<path id="XMLID_55_" class="st3" d="M118,234.2c-0.4-0.2-0.8-0.3-1.6-0.3c-0.3,0-1.1,0-1.9,0.5c-1.4,1-1.3,2.6-1.3,4.1V251h-4.9
		v-21.4h5l0,2.7c0.1-0.2,0.3-0.7,0.8-1.3c1.4-1.8,3.3-1.9,4.1-1.8L118,234.2z"/>
	<path id="XMLID_57_" class="st3" d="M127,251.2c-2.9,0-4.4-0.6-5-2c-0.4-0.8-0.4-1.6-0.4-2.5v-13.8h-2.7v-3.3h2.7v-7.8h4.9v7.8h3
		v3.3h-3v12.2c0,0.7,0,0.8,0.1,1.2c0.3,1,1.3,1.2,2.1,1.2c0.3,0,0.5,0,0.8-0.1v3.6C129,251.1,128.3,251.2,127,251.2z"/>
	<path id="XMLID_59_" class="st3" d="M131.7,226.5v-5h5v5H131.7z M131.7,251v-21.4h5V251H131.7z"/>
	<path id="XMLID_62_" class="st3" d="M145.1,241.4v3.5c0,0.8,0,1,0.1,1.4c0.3,1.1,1.3,1.2,1.7,1.2c0.8,0,1.3-0.4,1.6-1.2
		c0.2-0.6,0.2-2.1,0.2-2.4h4.8v1.7c0,0.8,0,1.2-0.2,1.9c-0.8,3-3.5,3.8-6.3,3.8c-4.4,0-5.8-2.2-6.4-4.1c-0.3-1-0.4-2.5-0.4-2.8v-9
		c0-0.3,0-1.8,0.5-2.9c1-2.5,3.8-3.4,6.3-3.4c3.5,0,5.4,1.8,6,3c0.4,0.8,0.6,1.4,0.6,3v6.1H145.1z M148.7,235.2
		c0-0.5,0.1-2.1-1.7-2.1c-1.8,0-1.8,1.6-1.8,2.1v2.6h3.6V235.2z"/>
	<path id="XMLID_65_" class="st3" d="M165.8,251v-15.8c0-1.3-0.1-1.9-0.8-2.3c-0.2-0.1-0.5-0.3-1-0.3c-2.3,0-2.1,2.5-2.1,2.9V251h-5
		v-21.4h5.1l0,1.5c1.3-1.3,2.3-2,4.3-2c2,0,3.8,1,4.3,3c0.2,0.6,0.2,1,0.2,2.1V251H165.8z"/>
	<path id="XMLID_67_" class="st3" d="M183.1,251l0-2.1c-0.5,0.7-1.6,2.5-4.2,2.5c-1.5,0-2.5-0.6-3-0.9c-1.6-1.2-1.8-2.5-1.8-5.9
		v-9.7c0-0.8-0.2-3.5,2.2-5c0.4-0.2,1.3-0.7,2.5-0.7c1.8,0,3.1,1,4.3,2.2v-9.8h5V251H183.1z M183.1,235.4c0-1,0-1.6-0.9-2.1
		c-0.5-0.3-1-0.3-1.2-0.3c-0.2,0-0.7,0-1.1,0.3c-0.8,0.6-0.8,1.5-0.8,2.4v9.1c0,1.3,0.1,1.7,0.7,2.1c0.2,0.1,0.7,0.3,1.2,0.3
		c0.7,0,1.3-0.3,1.7-0.8c0.3-0.4,0.4-0.8,0.4-1.8V235.4z"/>
	<path id="XMLID_70_" class="st3" d="M203.7,249.2c-1.9,2.3-4.8,2.2-5.7,2.2c-1,0-1.8-0.1-2.1-0.2c-0.8-0.2-3.1-0.9-4-3.4
		c-0.3-0.7-0.4-1.4-0.4-2.9v-9.6c0-1.5,0.2-2,0.4-2.7c1-2.7,3.8-3.5,6.4-3.5c0.7,0,4.8,0,6.1,3.1c0.3,0.8,0.5,1.4,0.5,2.8v10.3
		C204.9,247,204.7,248.1,203.7,249.2z M200,234.9c0-1.3-0.1-1.9-0.8-2.3c-0.3-0.3-0.8-0.3-0.9-0.3c-0.5,0-0.8,0.2-1,0.3
		c-0.8,0.6-0.8,1.5-0.8,2.3v10.9c0,0.4,0,2.2,1.7,2.2c1.9,0,1.8-1.9,1.8-2.3V234.9z"/>
</g>
<g id="XMLID_1_">
	<path id="XMLID_2_" class="st3" d="M22.4,283.7v3.5c0,0.8,0,1,0.1,1.4c0.3,1.1,1.3,1.2,1.7,1.2c0.8,0,1.3-0.4,1.6-1.2
		c0.2-0.6,0.2-2.1,0.2-2.4h4.8v1.7c0,0.8,0,1.2-0.2,1.9c-0.8,3-3.5,3.8-6.4,3.8c-4.4,0-5.8-2.2-6.4-4.1c-0.3-1-0.4-2.5-0.4-2.8v-9
		c0-0.3,0-1.8,0.5-2.9c1-2.5,3.8-3.4,6.3-3.4c3.5,0,5.4,1.8,6,3c0.4,0.8,0.6,1.4,0.6,3v6.1H22.4z M25.9,277.5c0-0.5,0.1-2.1-1.7-2.1
		s-1.8,1.6-1.8,2.1v2.6h3.6V277.5z"/>
	<path id="XMLID_5_" class="st3" d="M34.2,293.3v-29.5h5v29.5H34.2z"/>
	<path id="XMLID_7_" class="st3" d="M61.1,293.3c-0.4-0.5-0.5-0.8-0.6-1.9c-0.3,0.3-0.5,0.5-0.8,0.8c-0.5,0.5-1.6,1.5-3.6,1.5
		c-0.4,0-1.6,0-2.6-0.8c-1.8-1.3-1.6-3.8-1.6-5.7c0-1.5-0.1-3.1,1-4.4c0.6-0.7,1.4-1.2,2.3-1.6l5.2-2.6v-1.3c0-1.3-0.1-1.9-0.7-2.3
		c-0.2-0.1-0.5-0.3-1.1-0.3c-0.2,0-1.2,0-1.5,0.8c-0.2,0.4-0.2,1.1-0.2,2v0.8h-4.6v-2.4c0-0.5,0.1-2,1.2-3c0.9-0.9,2.6-1.6,5.4-1.6
		c0.6,0,4.3,0,5.8,2.7c0.5,0.9,0.5,1.7,0.5,2v11.9c0,1.2-0.1,3.8,0.6,4.8c0,0.1,0.1,0.2,0.3,0.4H61.1z M60.4,282.5l-2.4,1.6
		c-0.2,0.1-0.4,0.3-0.4,0.3c-0.6,0.6-0.7,1.4-0.7,3.1c0,1.6,0.2,2.5,1.2,2.5c0.7,0,1.3-0.3,1.8-0.8l0.5-0.5V282.5z"/>
	<path id="XMLID_10_" class="st3" d="M86.5,293.3v-15.8c0-0.8,0-1.6-0.8-2.2c-0.2-0.1-0.5-0.3-1-0.3c-1.7,0-2,1.4-2,2.7v15.6h-4.9
		v-15.7c0-0.9,0.1-1.7-0.7-2.3c-0.3-0.3-0.7-0.4-1.2-0.4c-2,0-1.9,2.2-1.9,2.5v15.8H69v-21.4h5v1.4c0.5-0.5,2-1.9,4.2-1.9
		c2.3,0,3.5,1.5,4,2.1c1.7-1.5,2.3-1.7,3.5-2c0.7-0.1,1-0.1,1.4-0.1c1.9,0,3.6,1,4.1,2.9c0.2,0.5,0.2,0.9,0.2,1.9v17H86.5z"/>
	<path id="XMLID_12_" class="st3" d="M107,291.5c-1.9,2.3-4.8,2.2-5.7,2.2c-1,0-1.8-0.1-2.1-0.2c-0.8-0.2-3.1-0.9-4-3.4
		c-0.3-0.7-0.4-1.4-0.4-2.9v-9.6c0-1.5,0.2-2,0.4-2.7c1-2.7,3.8-3.5,6.4-3.5c0.7,0,4.8,0,6.1,3.1c0.3,0.8,0.5,1.4,0.5,2.8v10.3
		C108.2,289.3,108,290.4,107,291.5z M103.3,277.2c0-1.3-0.1-1.9-0.8-2.3c-0.3-0.3-0.8-0.3-0.9-0.3c-0.5,0-0.8,0.2-1,0.3
		c-0.8,0.6-0.8,1.5-0.8,2.3v10.9c0,0.4,0,2.2,1.7,2.2c1.9,0,1.8-1.9,1.8-2.3V277.2z"/>
	<path id="XMLID_15_" class="st3" d="M121.4,276.5c-0.4-0.2-0.8-0.3-1.6-0.3c-0.3,0-1.1,0-1.9,0.5c-1.4,1-1.3,2.6-1.3,4.1v12.6h-4.9
		v-21.4h5l0,2.7c0.1-0.2,0.3-0.7,0.8-1.3c1.4-1.8,3.3-1.9,4.1-1.8L121.4,276.5z"/>
	<path id="XMLID_17_" class="st3" d="M146.7,291.7c-0.3,0.5-0.5,0.8-0.9,1.1c-0.5,0.4-1.3,0.9-2.8,0.9c-2,0-3.2-1-4.6-2.2v9.2h-5
		v-28.8h5v1.6c0.5-0.4,2.2-2.1,4.5-2c0.6,0,2.4,0.2,3.6,1.7c0.9,1.2,1,2.6,1,3.9v11.4C147.4,288.9,147.4,290.4,146.7,291.7z
		 M142.4,277.5c0-1.2-0.3-1.7-0.9-2c-0.2-0.1-0.5-0.3-1.1-0.3c-0.4,0-0.8,0.1-1.1,0.3c-0.8,0.5-0.9,1.3-0.9,2.2v9.6
		c0,0.2,0,0.7,0.2,1.2c0.4,1.1,1.5,1.2,1.9,1.2c1,0,1.6-0.6,1.8-1c0.2-0.5,0.2-1.1,0.2-1.2V277.5z"/>
	<path id="XMLID_20_" class="st3" d="M162.8,291.5c-1.9,2.3-4.8,2.2-5.7,2.2c-1,0-1.8-0.1-2.1-0.2c-0.8-0.2-3.1-0.9-4-3.4
		c-0.3-0.7-0.4-1.4-0.4-2.9v-9.6c0-1.5,0.2-2,0.4-2.7c1-2.7,3.8-3.5,6.4-3.5c0.7,0,4.8,0,6.1,3.1c0.3,0.8,0.5,1.4,0.5,2.8v10.3
		C164,289.3,163.8,290.4,162.8,291.5z M159,277.2c0-1.3-0.1-1.9-0.8-2.3c-0.3-0.3-0.8-0.3-0.9-0.3c-0.5,0-0.8,0.2-1,0.3
		c-0.8,0.6-0.8,1.5-0.8,2.3v10.9c0,0.4,0,2.2,1.7,2.2c1.9,0,1.8-1.9,1.8-2.3V277.2z"/>
	<path id="XMLID_23_" class="st3" d="M177.2,276.5c-0.4-0.2-0.8-0.3-1.6-0.3c-0.3,0-1.1,0-1.9,0.5c-1.4,1-1.3,2.6-1.3,4.1v12.6h-4.9
		v-21.4h5l0,2.7c0.1-0.2,0.3-0.7,0.8-1.3c1.4-1.8,3.3-1.9,4.1-1.8L177.2,276.5z"/>
	<path id="XMLID_25_" class="st3" d="M189.2,293.3v-29.5h5v29.5H189.2z"/>
	<path id="XMLID_27_" class="st3" d="M206.5,293.3c-0.4-0.5-0.5-0.8-0.6-1.9c-0.3,0.3-0.5,0.5-0.8,0.8c-0.5,0.5-1.6,1.5-3.6,1.5
		c-0.4,0-1.6,0-2.6-0.8c-1.8-1.3-1.6-3.8-1.6-5.7c0-1.5-0.1-3.1,1-4.4c0.6-0.7,1.4-1.2,2.3-1.6l5.2-2.6v-1.3c0-1.3-0.1-1.9-0.7-2.3
		c-0.2-0.1-0.5-0.3-1.1-0.3c-0.2,0-1.2,0-1.5,0.8c-0.2,0.4-0.2,1.1-0.2,2v0.8h-4.6v-2.4c0-0.5,0.1-2,1.2-3c0.9-0.9,2.6-1.6,5.4-1.6
		c0.6,0,4.3,0,5.8,2.7c0.5,0.9,0.5,1.7,0.5,2v11.9c0,1.2-0.1,3.8,0.6,4.8c0,0.1,0.1,0.2,0.3,0.4H206.5z M205.7,282.5l-2.4,1.6
		c-0.2,0.1-0.4,0.3-0.4,0.3c-0.6,0.6-0.7,1.4-0.7,3.1c0,1.6,0.2,2.5,1.2,2.5c0.7,0,1.3-0.3,1.8-0.8l0.5-0.5V282.5z"/>
	<path id="XMLID_30_" class="st3" d="M231.7,293.3h-4.8l-4.7-21.4h5l2.2,14.8l2.5-14.8h5L231.7,293.3z"/>
	<path id="XMLID_32_" class="st3" d="M238.7,268.8v-5h5v5H238.7z M238.7,293.3v-21.4h5v21.4H238.7z"/>
	<path id="XMLID_35_" class="st3" d="M256.1,293.3l0-2.1c-0.5,0.7-1.6,2.5-4.2,2.5c-1.5,0-2.5-0.6-3-0.9c-1.6-1.2-1.8-2.5-1.8-5.9
		v-9.7c0-0.8-0.2-3.5,2.2-5c0.4-0.2,1.3-0.7,2.5-0.7c1.8,0,3.1,1,4.3,2.2v-9.8h5v29.5H256.1z M256.2,277.8c0-1,0-1.6-0.9-2.1
		c-0.5-0.3-1-0.3-1.2-0.3c-0.2,0-0.7,0-1.1,0.3c-0.8,0.6-0.8,1.5-0.8,2.4v9.1c0,1.3,0.1,1.7,0.7,2.1c0.2,0.1,0.7,0.3,1.2,0.3
		c0.7,0,1.3-0.3,1.7-0.8c0.3-0.4,0.4-0.8,0.4-1.8V277.8z"/>
	<path id="XMLID_38_" class="st3" d="M273.5,293.3c-0.4-0.5-0.5-0.8-0.6-1.9c-0.3,0.3-0.5,0.5-0.8,0.8c-0.5,0.5-1.6,1.5-3.6,1.5
		c-0.4,0-1.6,0-2.6-0.8c-1.8-1.3-1.6-3.8-1.6-5.7c0-1.5-0.1-3.1,1-4.4c0.6-0.7,1.4-1.2,2.3-1.6l5.2-2.6v-1.3c0-1.3-0.1-1.9-0.7-2.3
		c-0.2-0.1-0.5-0.3-1.1-0.3c-0.2,0-1.2,0-1.5,0.8c-0.2,0.4-0.2,1.1-0.2,2v0.8h-4.6v-2.4c0-0.5,0.1-2,1.2-3c0.9-0.9,2.6-1.6,5.4-1.6
		c0.6,0,4.3,0,5.8,2.7c0.5,0.9,0.5,1.7,0.5,2v11.9c0,1.2-0.1,3.8,0.6,4.8c0,0.1,0.1,0.2,0.3,0.4H273.5z M272.8,282.5l-2.4,1.6
		c-0.2,0.1-0.4,0.3-0.4,0.3c-0.6,0.6-0.7,1.4-0.7,3.1c0,1.6,0.2,2.5,1.2,2.5c0.7,0,1.3-0.3,1.8-0.8l0.5-0.5V282.5z"/>
</g>
<rect x="4.6" y="325.4" class="st4" width="79.4" height="9"/>
</svg>
