<!-- Generator: Adobe Illustrator 19.0.0, SVG Export Plug-In  -->
<svg version="1.1"
	 xmlns="http://www.w3.org/2000/svg" xmlns:xlink="http://www.w3.org/1999/xlink" xmlns:a="http://ns.adobe.com/AdobeSVGViewerExtensions/3.0/"
	 x="0px" y="0px" width="10.7px" height="14.7px" viewBox="0 0 10.7 14.7" style="enable-background:new 0 0 10.7 14.7;"
	 xml:space="preserve">
<style type="text/css">
	.st0{fill:#FFFFFF;}
</style>
<defs>
</defs>
<g>
	<path class="st0" d="M4.5,0C4.4,0,4.3,0,4.2,0L3.3,0.4C0.5,1.7-0.8,4.9,0.5,7.7l1.7,3.8c1.2,2.7,4.5,3.9,7.4,2.6l0.8-0.4
		c0.2-0.1,0.3-0.4,0.2-0.6L9.1,9.7C9,9.4,8.7,9.3,8.4,9.4l-1.6,0.7c-0.6,0.3-1.3,0-1.6-0.6L4,6.7C3.7,6.1,4,5.4,4.6,5.1l1.6-0.7
		C6.4,4.3,6.5,4,6.4,3.8L4.8,0.3C4.8,0.2,4.7,0.1,4.5,0L4.5,0z M4.1,1.1l1.2,2.6L4.2,4.2C3.1,4.7,2.6,6,3.1,7.1L4.4,10
		c0.5,1.1,1.8,1.5,2.9,1l1.1-0.5l1.2,2.6l-0.4,0.2c-2.4,1.1-5,0.1-6.1-2.2L1.4,7.3c-1-2.2,0-4.9,2.4-6L4.1,1.1L4.1,1.1z"/>
</g>
</svg>
