<?xml version="1.0" encoding="utf-8"?>
<!-- Generator: Adobe Illustrator 16.0.0, SVG Export Plug-In . SVG Version: 6.00 Build 0)  -->
<!DOCTYPE svg PUBLIC "-//W3C//DTD SVG 1.1//EN" "http://www.w3.org/Graphics/SVG/1.1/DTD/svg11.dtd">
<svg version="1.1" id="Capa_1" xmlns="http://www.w3.org/2000/svg" xmlns:xlink="http://www.w3.org/1999/xlink" x="0px" y="0px"
	 width="125.157px" height="146.541px" viewBox="0 0 125.157 146.541" enable-background="new 0 0 125.157 146.541"
	 xml:space="preserve">
<g>
	<path fill="#19766C" d="M64.693,93.757c-0.367,0-0.688-0.271-0.74-0.646c-0.019-0.143-2.091-14.211-12.716-17.121
		c-0.398-0.109-0.632-0.521-0.524-0.92c0.111-0.398,0.521-0.633,0.921-0.523c4.812,1.318,8.728,4.924,11.324,10.428
		c1.934,4.105,2.457,7.779,2.479,7.932c0.056,0.41-0.23,0.787-0.64,0.844C64.761,93.753,64.725,93.757,64.693,93.757z"/>
	<path fill="#19766C" d="M12.297,121.696c-0.413,0-0.748-0.336-0.748-0.748V96.952c0-9.098,4.601-17.428,12.304-22.283
		c0.351-0.221,0.812-0.117,1.032,0.232c0.221,0.35,0.115,0.811-0.235,1.033c-7.267,4.578-11.606,12.436-11.606,21.018v23.996
		C13.044,121.36,12.711,121.696,12.297,121.696z"/>
	<path fill="#19766C" d="M37.824,81.653c-11.023,0-19.991-8.967-19.991-19.99v-6.932c0-0.414,0.335-0.748,0.748-0.748
		c0.415,0,0.748,0.334,0.748,0.748v6.932c0,10.198,8.295,18.494,18.495,18.494c10.199,0,18.495-8.296,18.495-18.494v-6.932
		c0-0.414,0.333-0.748,0.748-0.748c0.414,0,0.748,0.334,0.748,0.748v6.932C57.815,72.686,48.848,81.653,37.824,81.653z"/>
	<path fill="#19766C" d="M43.328,52.082H32.215c-0.415,0-0.748-0.335-0.748-0.748c0-0.413,0.333-0.748,0.748-0.748h11.113
		c0.414,0,0.749,0.335,0.749,0.748C44.077,51.747,43.742,52.082,43.328,52.082z"/>
	<g>
		<g>
			<circle fill="#19766C" cx="46.017" cy="59.169" r="2.551"/>
			<circle fill="#19766C" cx="29.526" cy="59.169" r="2.552"/>
		</g>
	</g>
	<path fill="#19766C" d="M37.771,72.652c-2.585,0-4.25-1.528-4.751-3.044c-0.13-0.392,0.083-0.815,0.475-0.945
		c0.393-0.131,0.813,0.082,0.944,0.475c0.333,1.005,1.493,2.019,3.332,2.019c2.223,0,3.086-1.454,3.355-2.078
		c0.163-0.38,0.602-0.555,0.981-0.393c0.38,0.163,0.556,0.603,0.393,0.982C41.699,71.536,39.931,72.652,37.771,72.652z"/>
	<g>
		<g>
			<path fill="#19766C" d="M31.54,64.776h-4.927c-2.556,0-4.634-2.078-4.634-4.633c0-0.413,0.335-0.749,0.749-0.749
				c0.414,0,0.748,0.335,0.748,0.749c0,1.729,1.407,3.136,3.137,3.136h4.927c1.73,0,3.137-1.407,3.137-3.136
				c0-0.413,0.335-0.749,0.749-0.749c0.413,0,0.747,0.335,0.747,0.749C36.172,62.698,34.096,64.776,31.54,64.776z"/>
			<path fill="#19766C" d="M49.035,64.835h-4.927c-2.556,0-4.634-2.078-4.634-4.631c0-0.413,0.335-0.748,0.748-0.748
				c0.415,0,0.748,0.335,0.748,0.748c0,1.729,1.408,3.135,3.138,3.135h4.927c1.73,0,3.137-1.406,3.137-3.135
				c0-0.413,0.335-0.748,0.749-0.748c0.413,0,0.748,0.335,0.748,0.748C53.668,62.757,51.589,64.835,49.035,64.835z"/>
			<path fill="#19766C" d="M40.222,60.891h-4.796c-0.415,0-0.748-0.334-0.748-0.748s0.333-0.749,0.748-0.749h4.796
				c0.414,0,0.748,0.335,0.748,0.749S40.636,60.891,40.222,60.891z"/>
		</g>
	</g>
	<path fill="#19766C" d="M39.873,66.305h-3.321c-0.413,0-0.747-0.334-0.747-0.748c0-4.908,1.879-7.948,1.959-8.075
		c0.22-0.35,0.683-0.453,1.032-0.234c0.349,0.22,0.453,0.681,0.234,1.03l0,0c-0.017,0.026-1.541,2.518-1.714,6.531h2.556
		c0.414,0,0.748,0.335,0.748,0.748C40.621,65.971,40.287,66.305,39.873,66.305z"/>
	<path fill="#19766C" d="M61.398,63.164c-0.413,0-0.748-0.335-0.748-0.749v-8.436c0-12.5-10.169-22.67-22.669-22.67
		c-12.5,0-22.668,10.17-22.668,22.67v8.436c0,0.414-0.335,0.749-0.748,0.749c-0.415,0-0.748-0.335-0.748-0.749v-8.436
		c0-13.325,10.839-24.166,24.164-24.166s24.165,10.841,24.165,24.166v8.436C62.146,62.829,61.812,63.164,61.398,63.164z"/>
	<path fill="#19766C" d="M18.582,55.48c-0.413,0-0.748-0.335-0.748-0.748c0-0.414,0.335-0.748,0.748-0.748
		c5.27,0,6.814-5.328,6.878-5.555c0.089-0.323,0.385-0.548,0.72-0.548c0.044,0.001,0.098,0,0.146,0c1.883,0,3.325-0.518,4.289-1.543
		c1.58-1.678,1.412-4.218,1.409-4.244c-0.031-0.411,0.278-0.77,0.688-0.802c0.422-0.025,0.771,0.275,0.803,0.686
		c0.011,0.13,0.229,3.206-1.8,5.374c-1.187,1.269-2.868,1.947-5.001,2.019C26.104,50.96,23.901,55.48,18.582,55.48z"/>
	<path fill="#19766C" d="M56.614,55.48c-5.319,0-7.522-4.52-8.133-6.109c-2.134-0.072-3.813-0.75-5.001-2.019
		c-2.029-2.168-1.811-5.243-1.801-5.374c0.033-0.412,0.38-0.719,0.805-0.686c0.411,0.033,0.719,0.393,0.686,0.803
		c-0.002,0.057-0.16,2.576,1.41,4.243c0.987,1.048,2.472,1.587,4.425,1.542c0.375,0.008,0.641,0.222,0.731,0.549
		c0.063,0.226,1.608,5.554,6.878,5.554c0.414,0,0.748,0.334,0.748,0.748C57.362,55.145,57.028,55.48,56.614,55.48z"/>
	<path fill="#19766C" d="M61.398,76.151c-0.413,0-0.748-0.334-0.748-0.746c0-0.414,0.335-0.75,0.748-0.75
		c3.068,0,5.563-2.497,5.563-5.566c0-3.069-2.495-5.565-5.563-5.565c-0.413,0-0.748-0.335-0.748-0.748
		c0-0.413,0.335-0.748,0.748-0.748c3.893,0,7.06,3.167,7.06,7.061C68.458,72.983,65.291,76.151,61.398,76.151z"/>
	<path fill="#19766C" d="M14.564,76.151c-3.895,0-7.063-3.168-7.063-7.062c0-3.894,3.169-7.061,7.063-7.061
		c0.413,0,0.748,0.335,0.748,0.748c0,0.413-0.335,0.748-0.748,0.748c-3.069,0-5.568,2.497-5.568,5.565
		c0,3.07,2.499,5.566,5.568,5.566c0.413,0,0.748,0.336,0.748,0.75C15.312,75.817,14.977,76.151,14.564,76.151z"/>
	<path fill="#19766C" d="M91.149,75.308c-11.297,0-20.146-8.642-20.146-19.673c0-0.413,0.336-0.748,0.747-0.748
		c0.413,0,0.749,0.335,0.749,0.748c0,10.193,8.191,18.177,18.649,18.177c10.457,0,18.648-7.984,18.648-18.177
		c0-0.413,0.336-0.748,0.749-0.748c0.412,0,0.747,0.335,0.747,0.748C111.293,66.666,102.446,75.308,91.149,75.308z"/>
	<path fill="#19766C" d="M116.892,121.696L116.892,121.696c-0.414,0-0.748-0.336-0.748-0.75l0.016-29.74
		c0.018-8.605-4.323-16.484-11.616-21.074c-0.349-0.219-0.455-0.682-0.233-1.031c0.219-0.349,0.683-0.455,1.031-0.234
		c7.73,4.865,12.333,13.218,12.314,22.341l-0.016,29.74C117.64,121.36,117.304,121.696,116.892,121.696z"/>
	<path fill="#19766C" d="M64.696,93.757c-0.01,0-0.021,0-0.032,0c-0.411-0.018-0.733-0.365-0.716-0.777
		c0.008-0.193,0.205-4.779,1.943-10.066c2.326-7.084,6.332-11.975,11.584-14.146c0.381-0.156,0.817,0.023,0.976,0.406
		c0.157,0.382-0.022,0.819-0.405,0.977c-11.742,4.854-12.597,22.708-12.604,22.888C65.426,93.44,65.094,93.757,64.696,93.757z"/>
	<path fill="#19766C" d="M95.681,45.137h-8.447c-0.413,0-0.748-0.335-0.748-0.749c0-0.412,0.335-0.748,0.748-0.748h8.447
		c0.414,0,0.748,0.335,0.748,0.748C96.429,44.802,96.095,45.137,95.681,45.137z"/>
	<g>
		<g>
			<circle fill="#19766C" cx="99.524" cy="52.224" r="2.552"/>
			<circle fill="#19766C" cx="83.034" cy="52.224" r="2.552"/>
		</g>
	</g>
	<path fill="#19766C" d="M91.281,66.273c-2.584,0-4.249-1.53-4.753-3.045c-0.129-0.393,0.082-0.815,0.476-0.946
		c0.392-0.129,0.816,0.083,0.944,0.475c0.334,1.006,1.494,2.02,3.333,2.02c2.221,0,3.086-1.454,3.353-2.08
		c0.163-0.38,0.602-0.555,0.983-0.392c0.379,0.163,0.555,0.603,0.392,0.982C95.208,65.157,93.44,66.273,91.281,66.273z"/>
	<path fill="#19766C" d="M93.352,59.505h-3.32c-0.414,0-0.747-0.335-0.747-0.748c0-4.91,1.878-7.949,1.958-8.075
		c0.22-0.35,0.684-0.454,1.031-0.235c0.35,0.22,0.454,0.682,0.235,1.031c-0.029,0.049-1.54,2.534-1.714,6.532h2.557
		c0.413,0,0.747,0.334,0.747,0.748S93.765,59.505,93.352,59.505z"/>
	<g>
		<g>
			<path fill="#19766C" d="M81.918,59.173c-0.16,0-0.32-0.051-0.457-0.156c-0.326-0.253-0.387-0.723-0.133-1.049
				c0.985-1.275,3.027-1.857,3.258-1.919c0.398-0.106,0.807,0.128,0.915,0.526c0.107,0.398-0.125,0.809-0.523,0.917
				c-0.491,0.135-1.892,0.646-2.467,1.39C82.364,59.074,82.143,59.173,81.918,59.173z"/>
			<g>
				<path fill="#19766C" d="M100.641,59.121c-0.223,0-0.444-0.099-0.592-0.289c-0.583-0.75-1.98-1.257-2.47-1.39
					c-0.399-0.108-0.635-0.519-0.526-0.917c0.108-0.399,0.516-0.633,0.917-0.527c0.23,0.062,2.271,0.644,3.259,1.916
					c0.255,0.326,0.195,0.796-0.13,1.05C100.961,59.07,100.8,59.121,100.641,59.121z"/>
			</g>
		</g>
	</g>
	<path fill="#19766C" d="M114.572,47.312"/>
	<path fill="#19766C" d="M67.665,47.312"/>
	<path fill="#19766C" d="M110.483,56.382c-2.667,0-4.839-2.17-4.839-4.836V38.219c0-1.181-6.852-5.119-14.495-5.119
		c-8.768,0-13.597,4.431-14.56,5.414v13.032c0,2.667-2.171,4.836-4.839,4.836c-0.411,0-0.747-0.334-0.747-0.748
		s0.336-0.748,0.747-0.748c1.844,0,3.342-1.499,3.342-3.341V38.219c0-0.178,0.063-0.35,0.18-0.485
		c0.214-0.25,5.341-6.129,15.877-6.129c6.458,0,15.991,3.484,15.991,6.614v13.327c0,1.59,1.118,2.926,2.611,3.26
		c0.07-1.612,0.433-5.114,2.178-6.89c0.542-0.553,1.174-0.904,1.88-1.047c-0.353-11.773-9.975-20.568-22.659-20.568
		c-13.135,0-22.669,8.617-22.669,20.489v0.753c0,0.413-0.336,0.748-0.748,0.748c-0.413,0-0.748-0.335-0.748-0.748V46.79
		c0-12.739,10.163-21.984,24.165-21.984c13.778,0,24.165,9.775,24.165,22.737c0,0.413-0.334,0.748-0.747,0.748
		c-0.611,0-1.126,0.22-1.571,0.672c-1.513,1.541-1.787,5.329-1.767,6.658c0.002,0.201-0.073,0.394-0.214,0.538
		C110.875,56.301,110.682,56.382,110.483,56.382z"/>
	<path fill="#19766C" d="M71.75,56.382c-0.411,0-0.747-0.334-0.747-0.748c0-0.073-0.095-7.344-3.272-7.344
		c-0.413,0-0.747-0.335-0.747-0.748c0-0.413,0.334-0.748,0.747-0.748c4.716,0,4.769,8.479,4.769,8.84
		C72.5,56.047,72.164,56.381,71.75,56.382L71.75,56.382z"/>
	<g>
		<g>
			<path fill="#19766C" d="M69.729,60.093c-2.381,0-4.315-1.936-4.315-4.316v-5.283c0-0.413,0.333-0.748,0.748-0.748
				c0.413,0,0.748,0.334,0.748,0.748v5.283c0,1.556,1.264,2.82,2.819,2.82c0.414,0,0.748,0.335,0.748,0.748
				C70.477,59.758,70.143,60.093,69.729,60.093z"/>
			<path fill="#19766C" d="M71.326,60.092h-1.597c-0.413,0-0.748-0.335-0.748-0.749c0-0.413,0.335-0.748,0.748-0.748h1.597
				c0.415,0,0.749,0.334,0.749,0.748C72.075,59.757,71.741,60.092,71.326,60.092z"/>
		</g>
	</g>
	<g>
		<g>
			<path fill="#19766C" d="M112.14,60.093c-0.413,0-0.749-0.335-0.749-0.748c0-0.413,0.336-0.748,0.749-0.748
				c1.556,0,2.82-1.264,2.82-2.82v-5.283c0-0.413,0.334-0.748,0.749-0.748c0.414,0,0.747,0.334,0.747,0.748v5.283
				C116.457,58.157,114.52,60.093,112.14,60.093z"/>
			<path fill="#19766C" d="M112.142,60.092h-1.596c-0.413,0-0.749-0.335-0.749-0.749c0-0.413,0.336-0.748,0.749-0.748h1.596
				c0.412,0,0.747,0.334,0.747,0.748C112.889,59.757,112.554,60.092,112.142,60.092z"/>
		</g>
	</g>
	<path fill="#19766C" d="M95.681,40.876h-8.447c-0.413,0-0.748-0.334-0.748-0.748c0-0.413,0.335-0.748,0.748-0.748h8.447
		c0.414,0,0.748,0.334,0.748,0.748C96.429,40.542,96.095,40.876,95.681,40.876z"/>
	<path fill="#19766C" d="M57.211,98.368"/>
	<path fill="#19766C" stroke="#19766C" stroke-miterlimit="10" d="M64.545,121.735c-0.053,0-0.106-0.014-0.151-0.039
		c-0.046-0.027-4.522-2.686-6.808-4.297c-3.685-2.596-5.646-4.676-5.665-4.695c-1.527-1.514-2.373-3.639-2.373-5.98
		c0-4.607,3.747-8.355,8.355-8.355c2.616,0,5.072,1.23,6.65,3.312c1.558-2.082,4.015-3.312,6.649-3.312
		c4.608,0,8.356,3.748,8.356,8.355c0,2.342-0.846,4.467-2.383,5.988c-0.011,0.012-1.971,2.092-5.656,4.688
		c-2.285,1.611-6.781,4.27-6.827,4.297C64.648,121.722,64.595,121.735,64.545,121.735z M57.904,98.96
		c-4.282,0-7.765,3.482-7.765,7.764c0,2.182,0.783,4.16,2.205,5.568c0.028,0.027,1.953,2.066,5.582,4.625
		c2.033,1.43,5.819,3.703,6.62,4.182c0.802-0.479,4.604-2.75,6.637-4.182c3.629-2.559,5.553-4.598,5.572-4.617
		c1.432-1.416,2.214-3.393,2.214-5.576c0-4.281-3.482-7.764-7.765-7.764c-2.617,0-4.953,1.238-6.404,3.395
		c-0.055,0.082-0.146,0.131-0.244,0.131l0,0c-0.098,0-0.189-0.049-0.243-0.131C62.86,100.229,60.466,98.96,57.904,98.96z"/>
</g>
</svg>
