<?xml version="1.0" encoding="utf-8"?>
<!-- Generator: Adobe Illustrator 22.1.0, SVG Export Plug-In . SVG Version: 6.00 Build 0)  -->
<svg version="1.1" id="Capa_1" xmlns="http://www.w3.org/2000/svg" xmlns:xlink="http://www.w3.org/1999/xlink" x="0px" y="0px"
	 viewBox="0 0 151.2 39.8" style="enable-background:new 0 0 151.2 39.8;" xml:space="preserve">
<style type="text/css">
	.st0{fill:#1B776D;}
</style>
<g>
	<path class="st0" d="M19.2,17.6c1.1,1.7,1.6,4.1,1.6,7.2v11c0,0.7-0.2,1.4-0.7,1.9s-1.1,0.8-1.8,0.8c-0.7,0-1.4-0.2-1.9-0.8
		c-0.5-0.5-0.7-1.1-0.7-1.9v-11c0-1.6-0.3-2.8-0.9-3.7c-0.6-0.9-1.7-1.4-3.3-1.4s-2.9,0.5-3.8,1.4c-0.9,1-1.4,2.2-1.4,3.6v11
		c0,0.7-0.2,1.4-0.7,1.9s-1.1,0.8-1.8,0.8s-1.4-0.2-1.9-0.8c-0.5-0.5-0.7-1.1-0.7-1.9V9.3c0-0.7,0.2-1.4,0.7-1.9S3,6.6,3.8,6.6
		c0.7,0,1.4,0.3,1.8,0.8c0.5,0.5,0.7,1.1,0.7,1.9v9.5c0.8-1,1.8-1.9,2.9-2.6c1.2-0.7,2.5-1.1,4-1.1C16.2,15,18.1,15.9,19.2,17.6"/>
	<path class="st0" d="M41,32.1c1.2-1.4,1.8-3.1,1.8-5.1c0-2.1-0.6-3.8-1.8-5.2s-2.7-2.1-4.6-2.1c-1.8,0-3.3,0.7-4.5,2.1
		s-1.8,3.1-1.8,5.2s0.6,3.8,1.7,5.1c1.2,1.4,2.7,2,4.5,2C38.3,34.2,39.8,33.5,41,32.1 M47,15.8c0.5,0.5,0.7,1.1,0.7,1.9v18.2
		c0,0.7-0.2,1.4-0.7,1.9s-1.1,0.8-1.9,0.8c-0.7,0-1.4-0.2-1.8-0.7c-0.5-0.5-0.7-1.1-0.8-1.9c-0.7,0.8-1.7,1.5-2.9,2.1
		S37.1,39,35.7,39c-2,0-3.8-0.5-5.4-1.5s-2.9-2.4-3.8-4.2s-1.4-3.9-1.4-6.2s0.5-4.4,1.4-6.2c0.9-1.8,2.2-3.2,3.8-4.3
		c1.6-1,3.4-1.5,5.3-1.5c1.4,0,2.7,0.3,3.9,0.8c1.2,0.5,2.2,1.1,3.1,1.9l0,0c0-0.7,0.2-1.4,0.7-1.9s1.1-0.8,1.8-0.8
		C45.8,15,46.5,15.3,47,15.8"/>
	<path class="st0" d="M69.1,32.1c1.2-1.4,1.8-3.1,1.8-5.2s-0.6-3.8-1.7-5.1c-1.2-1.4-2.7-2-4.5-2c-1.9,0-3.4,0.7-4.6,2
		c-1.2,1.4-1.8,3.1-1.8,5.1c0,2.1,0.6,3.8,1.8,5.2s2.7,2.1,4.6,2.1C66.4,34.2,67.9,33.5,69.1,32.1 M70.6,16.6c1.6,1,2.9,2.4,3.8,4.2
		s1.4,3.9,1.4,6.2s-0.5,4.4-1.4,6.2c-0.9,1.8-2.2,3.2-3.8,4.3c-1.6,1-3.4,1.5-5.3,1.5c-1.4,0-2.7-0.3-3.9-0.8c-1.2-0.6-2.2-1.2-3-2
		v0.3c0,0.7-0.2,1.4-0.7,1.9s-1.1,0.8-1.9,0.8c-0.7,0-1.4-0.2-1.8-0.7c-0.5-0.5-0.7-1.1-0.7-1.9v-27c0-0.7,0.2-1.4,0.7-1.9
		s1.1-0.8,1.8-0.8s1.4,0.3,1.9,0.8s0.7,1.1,0.7,1.9v9c0.7-0.9,1.6-1.6,2.9-2.3c1.2-0.6,2.5-1,3.9-1C67.2,15,69,15.5,70.6,16.6"/>
	<path class="st0" d="M84.2,37.7c-0.5,0.5-1.1,0.8-1.8,0.8c-0.7,0-1.4-0.2-1.9-0.8c-0.5-0.5-0.7-1.1-0.7-1.9V18.1
		c0-0.7,0.2-1.4,0.7-1.9s1.1-0.8,1.9-0.8c0.7,0,1.4,0.3,1.8,0.8c0.5,0.5,0.7,1.1,0.7,1.9v17.8C85,36.6,84.7,37.2,84.2,37.7"/>
	<path class="st0" d="M102.4,34.2c0.3,0.4,0.5,0.9,0.5,1.5c0,0.8-0.4,1.4-1.3,2c-0.8,0.5-1.8,0.8-2.9,0.8c-1.8,0-3.3-0.4-4.5-1.1
		c-1.2-0.8-1.8-2.4-1.8-4.8v-12h-2c-0.7,0-1.3-0.2-1.7-0.7c-0.5-0.5-0.7-1-0.7-1.7s0.2-1.2,0.7-1.7c0.5-0.4,1-0.7,1.7-0.7h2V13
		c0-0.7,0.3-1.4,0.8-1.9s1.1-0.8,1.9-0.8c0.7,0,1.3,0.3,1.8,0.8s0.7,1.1,0.7,1.9v2.8h3.1c0.7,0,1.3,0.2,1.7,0.7
		c0.5,0.5,0.7,1,0.7,1.7s-0.2,1.2-0.7,1.7c-0.5,0.4-1,0.7-1.7,0.7h-3.1v11.7c0,0.6,0.2,1,0.5,1.3s0.7,0.4,1.3,0.4
		c0.2,0,0.5-0.1,0.9-0.2c0.3-0.1,0.7-0.2,1-0.2C101.8,33.6,102.1,33.8,102.4,34.2"/>
	<path class="st0" d="M122.4,32.1c1.2-1.4,1.8-3.1,1.8-5.1c0-2.1-0.6-3.8-1.8-5.2c-1.2-1.4-2.7-2.1-4.6-2.1c-1.8,0-3.3,0.7-4.5,2.1
		s-1.8,3.1-1.8,5.2s0.6,3.8,1.7,5.1c1.2,1.4,2.7,2,4.5,2C119.7,34.2,121.2,33.5,122.4,32.1 M128.3,15.8c0.5,0.5,0.7,1.1,0.7,1.9
		v18.2c0,0.7-0.2,1.4-0.7,1.9s-1.1,0.8-1.9,0.8c-0.7,0-1.4-0.2-1.8-0.7c-0.5-0.5-0.7-1.1-0.8-1.9c-0.7,0.8-1.7,1.5-2.9,2.1
		c-1.2,0.6-2.5,0.9-3.9,0.9c-2,0-3.8-0.5-5.4-1.5s-2.9-2.4-3.8-4.2s-1.4-3.9-1.4-6.2s0.5-4.4,1.4-6.2c0.9-1.8,2.2-3.2,3.8-4.3
		c1.6-1,3.4-1.5,5.3-1.5c1.4,0,2.7,0.3,3.9,0.8c1.2,0.5,2.2,1.1,3.1,1.9l0,0c0-0.7,0.2-1.4,0.7-1.9s1.1-0.8,1.9-0.8
		C127.2,15,127.8,15.3,128.3,15.8"/>
	<path class="st0" d="M146.9,34.2c0.3,0.4,0.5,0.9,0.5,1.5c0,0.8-0.4,1.4-1.3,2c-0.8,0.5-1.8,0.8-2.9,0.8c-1.8,0-3.3-0.4-4.5-1.1
		c-1.2-0.8-1.8-2.4-1.8-4.8v-12h-2c-0.7,0-1.3-0.2-1.7-0.7c-0.5-0.5-0.7-1-0.7-1.7s0.2-1.2,0.7-1.7c0.5-0.4,1-0.7,1.7-0.7h2V13
		c0-0.7,0.3-1.4,0.8-1.9s1.1-0.8,1.9-0.8c0.7,0,1.3,0.3,1.8,0.8s0.7,1.1,0.7,1.9v2.8h3.1c0.7,0,1.3,0.2,1.7,0.7
		c0.5,0.5,0.7,1,0.7,1.7s-0.2,1.2-0.7,1.7c-0.5,0.4-1,0.7-1.7,0.7h-3.1v11.7c0,0.6,0.2,1,0.5,1.3s0.7,0.4,1.3,0.4
		c0.2,0,0.5-0.1,0.9-0.2c0.3-0.1,0.7-0.2,1-0.2C146.2,33.6,146.5,33.8,146.9,34.2"/>
	<path class="st0" d="M35.6,12.5c0,0-0.4-11.5,11.9-11.9C47.5,0.6,47,12.3,35.6,12.5"/>
	<path class="st0" d="M85.2,11.4c0,1.5-1.2,2.7-2.7,2.7s-2.7-1.2-2.7-2.7s1.2-2.7,2.7-2.7S85.2,9.9,85.2,11.4"/>
</g>
</svg>
