<?xml version="1.0" encoding="utf-8"?>
<!-- Generator: Adobe Illustrator 19.0.0, SVG Export Plug-In . SVG Version: 6.00 Build 0)  -->
<svg version="1.1" id="Capa_1" xmlns="http://www.w3.org/2000/svg" xmlns:xlink="http://www.w3.org/1999/xlink" x="0px" y="0px"
	 viewBox="0 0 67.4 23" style="enable-background:new 0 0 67.4 23;" xml:space="preserve">
<style type="text/css">
	.st0{fill:#FFFFFF;}
	.st1{fill:none;stroke:#FFFFFF;stroke-miterlimit:10;}
</style>
<g id="XMLID_55_">
	<path id="XMLID_62_" class="st0" d="M54.9,17.1c0-0.8,0.5-1.3,1.3-1.3c0.7,0,1.3,0.6,1.3,1.3c0,0.8-0.5,1.3-1.3,1.3
		C55.4,18.5,54.9,17.9,54.9,17.1z"/>
	<path id="XMLID_61_" class="st0" d="M42.1,4.7c-1.1-0.2-1.5,1-1.7,1.7c-0.6,1.8-1.2,3.6-1.9,5.4c-0.2,0.5-0.4,0.9-0.6,1.4
		c-0.2,0.3-0.4,0.7-0.7,0.8c-0.3,0.1-0.7-0.3-0.8-0.5c-1-1.6-2.5-7.6-2.5-7.6s-0.3-1.5-1.6-1.3c-1.3,0.2-1,1.2-0.9,1.7l3.2,11
		c0,0,0.5,1.4,2.5,1.4c2-0.1,2.1-1.2,2.5-2.3C40,15.3,43,6.6,43,6.6S43.7,4.9,42.1,4.7z"/>
	<path id="XMLID_58_" class="st0" d="M53.7,16.9c-0.1-0.3-0.2-0.6-0.3-0.9c-0.3-0.7-0.6-1.5-0.9-2.2c-0.4-0.9-0.7-1.9-1.1-2.8
		c-0.6-1.5-1.3-3.1-1.9-4.6c-0.4-0.9-0.9-1.7-2-1.8c-0.3,0-0.7,0.1-0.9,0.2c-0.5,0.4-0.8,1-1,1.6c-0.1,0.3-0.2,0.6-0.3,0.9
		c-0.2,0.5-0.4,1.1-0.6,1.6c-0.3,1-0.7,1.9-1,2.9c-0.3,0.9-0.7,1.8-1,2.7c-0.2,0.7-0.5,1.4-0.8,2.1c-0.2,0.5-0.6,1.3,0,1.8
		c0.2,0.1,0.4,0.3,0.6,0.3c0.4,0.1,0.7,0,1.1-0.2c0.4-0.3,0.5-0.9,0.6-1.3c0.1-0.4,0.2-0.7,0.3-1.1c0.1-0.3,0.2-0.7,0.5-0.9
		c0.3-0.3,0.9-0.3,1.3-0.3c0.5,0,1.1,0.1,1.6,0.1c2.5,0.3,2.9,1.6,3,2.1c0.2,0.5,0.5,1.7,2,1.5C54.3,18.3,53.7,16.9,53.7,16.9z
		 M49.3,12.9c-0.3,0.3-0.8,0.2-1.1,0.1C48.1,13,48,13,47.9,13c-0.5-0.1-1-0.3-1.4-0.6c-0.2-0.2-0.3-0.4-0.3-0.7
		c0-0.4,0.1-0.8,0.3-1.1c0.1-0.4,0.3-0.8,0.4-1.1c0.1-0.3,0.3-0.6,0.6-0.7c0.3-0.1,0.5,0.1,0.7,0.3c0.6,0.9,1,1.9,1.3,3
		C49.5,12.3,49.5,12.7,49.3,12.9z"/>
	<path id="XMLID_57_" class="st0" d="M28.6,4.6c-1.7-0.2-1.7,1.3-1.7,1.3c0,0.2,0,0.4,0,0.5c0,2,0,3.9,0,5.9c0,0.8-0.1,1.7-0.5,2.4
		c-1,2-3.8,1.7-4.9,0c-1.1-1.8-0.7-4-0.7-6c0-0.9,0-1.8,0-2.7c0,0,0.2-1.3-1.3-1.4c-1.5-0.1-1.3,1.5-1.3,1.5l0,6.5
		c0,0.2,0,0.4,0.1,0.5c0.1,0.6,0.2,1.1,0.4,1.7c0.4,0.9,1,1.8,1.8,2.5c0.8,0.7,2.1,1.1,3.2,1.2c2.3,0.1,4.5-1.1,5.3-3.1
		c0.2-0.7,0.4-1.3,0.4-2c0,0,0.2-7.2,0.2-7.2C29.7,4.7,28.6,4.6,28.6,4.6z"/>
	<path id="XMLID_56_" class="st0" d="M16.8,17L14.6,4.9c-0.1-0.3-0.3-0.5-0.6-0.5c-0.3,0-0.5,0.1-0.6,0.4c0,0.1-0.1,0.1-0.1,0.2
		c0,0.1-0.1,0.1-0.1,0.2c0,0.1-0.1,0.2-0.1,0.3C13,5.5,13,5.6,12.9,5.7c-0.1,0.1-0.1,0.2-0.2,0.4c-0.1,0.1-0.1,0.3-0.2,0.4
		c-0.1,0.1-0.1,0.3-0.2,0.4c-0.1,0.2-0.1,0.3-0.2,0.5C12,7.5,12,7.6,11.9,7.8c-0.1,0.2-0.2,0.3-0.2,0.5c-0.1,0.2-0.1,0.3-0.2,0.5
		c-0.1,0.2-0.1,0.3-0.2,0.5c-0.1,0.1-0.1,0.3-0.2,0.4C11,9.7,10.9,9.9,10.8,10c-0.1,0.1-0.1,0.2-0.2,0.4c-0.1,0.1-0.1,0.2-0.2,0.3
		c0,0.1-0.1,0.2-0.1,0.3c0,0.1-0.1,0.1-0.1,0.2c0,0,0,0.1-0.1,0.1c0,0,0,0,0,0.1L10,11.7l0,0l0,0l0,0.1c-0.2,0.4-0.6,0.6-1,0.6
		c-0.4,0-0.9-0.3-1-0.6l0-0.1l0,0l0,0l-0.2-0.4L4.5,4.7l0,0l0,0C4.4,4.5,4.2,4.4,3.9,4.4c-0.3,0-0.6,0.2-0.6,0.5L1.2,16
		C1.2,16.3,1.1,16.7,1,17c0,0-0.4,1.3,1.2,1.6c1.2,0.2,1.6-0.8,1.7-1.3c0,0,0-0.1,0-0.1C4,17.1,4,17,4,17L4,16.4l0.4-3.9l0-0.3
		c0-0.3,0.3-0.5,0.6-0.5c0.1,0,0.1,0,0.2,0c0.1,0,0.2,0.1,0.3,0.2c0.1,0.1,0.1,0.3,0.2,0.4c0,0,2.1,4.4,2.1,4.4
		C8,17.2,8.4,17.5,9,17.5c0.5,0,1-0.3,1.2-0.8c0,0,2.1-4.4,2.1-4.4c0.1-0.1,0.1-0.3,0.2-0.4c0.1-0.1,0.1-0.2,0.3-0.2
		c0.1,0,0.1,0,0.2,0c0.3,0,0.5,0.2,0.6,0.5l0,0.3l0.3,3.2l0.1,1.3c0,0,0,1.7,1.6,1.5C17.1,18.3,16.8,17,16.8,17z"/>
</g>
<line id="XMLID_100_" class="st1" x1="65.9" y1="1.5" x2="65.9" y2="21.5"/>
</svg>
