<?xml version="1.0" encoding="utf-8"?>
<!-- Generator: Adobe Illustrator 19.0.0, SVG Export Plug-In . SVG Version: 6.00 Build 0)  -->
<svg version="1.1" id="Capa_1" xmlns="http://www.w3.org/2000/svg" xmlns:xlink="http://www.w3.org/1999/xlink" x="0px" y="0px"
	 viewBox="0 0 27.3 21.5" style="enable-background:new 0 0 27.3 21.5;" xml:space="preserve">
<style type="text/css">
	.st0{fill:#FFFFFF;}
</style>
<g id="XMLID_63_">
	<g id="XMLID_96_">
		<path id="XMLID_97_" class="st0" d="M23.3,21.5H1.7c0,0-0.1,0-0.1,0C1,21.4,0,20.9,0,19.6c0-1.1,0-8.6,0-8.7V6.6
			c0-1.6,1-1.8,1.3-1.8c0.5,0,1,0.3,1.1,0.4l6.1,4V7.2c0,0,0,0,0-0.1V6.2c0-0.7,0.4-1,0.9-1c0.4,0,0.8,0.3,0.9,0.3l1.7,1.1l3.8,2.4
			V6.3c0-0.7,0.4-1,0.9-1c0.4,0,0.8,0.3,0.9,0.3L24,9.9c0.4,0.3,1.1,0.9,1.1,1.9v7.9c0,0.2,0,0.8-0.4,1.3
			C24.4,21.2,24,21.5,23.3,21.5z M1.8,20.3h21.6c0.2,0,0.3,0,0.4-0.1c0.1-0.1,0.1-0.3,0.1-0.4c0,0,0,0,0,0v-7.9
			c0-0.6-0.5-0.9-0.5-0.9c0,0,0,0,0,0L17,6.7v3.5c0,0.2-0.1,0.4-0.3,0.5c-0.2,0.1-0.4,0.1-0.6,0l-4.7-3L9.8,6.7v0.5c0,0,0,0,0,0.1v3
			c0,0.2-0.1,0.4-0.3,0.5c-0.2,0.1-0.4,0.1-0.6,0L1.8,6.2C1.7,6.1,1.5,6,1.3,6c0,0,0,0,0,0c0,0-0.1,0.2-0.1,0.5v4.4
			c0,0.1,0,7.5,0,8.7C1.2,20.1,1.6,20.2,1.8,20.3z"/>
	</g>
	<g id="XMLID_92_">
		<path id="XMLID_93_" class="st0" d="M21.6,7.5c-0.1,0-0.2,0-0.3-0.1l-2.8-1.8c-0.2-0.1-0.3-0.3-0.3-0.5V2c0-1.1,0.9-2,2-2
			c1.1,0,2,0.9,2,2v4.9c0,0.2-0.1,0.4-0.3,0.5C21.8,7.5,21.7,7.5,21.6,7.5z M19.4,4.8l1.6,1V2c0-0.4-0.4-0.8-0.8-0.8
			c-0.4,0-0.8,0.4-0.8,0.8V4.8z"/>
	</g>
	<g id="XMLID_88_">
		<path id="XMLID_89_" class="st0" d="M24.7,9.6c-0.1,0-0.2,0-0.3-0.1l-1.7-1.2c-0.1-0.1-0.2-0.2-0.2-0.4V6.7c0,0,0,0,0-0.1
			c0.1-0.7,0.6-1.2,1.3-1.2c0.7,0,1.3,0.6,1.3,1.3c0,0,0,0,0,0l0,0v0v0v2.4c0,0.2-0.1,0.3-0.3,0.4C24.9,9.6,24.8,9.6,24.7,9.6z
			 M23.5,7.7l0.7,0.5V6.7v0c0-0.2-0.2-0.4-0.4-0.4c-0.2,0-0.4,0.2-0.4,0.4c0,0,0,0,0,0V7.7z"/>
	</g>
	<g id="XMLID_68_">
		<path id="XMLID_70_" class="st0" d="M26.9,17.5C26.9,17.5,26.9,17.5,26.9,17.5h-4.7c-0.1,0-0.3-0.1-0.4-0.2
			c-0.1-0.1-0.1-0.3,0-0.4l2.4-4.1c0.1-0.1,0.2-0.2,0.4-0.2c0.1,0,0.3,0.1,0.4,0.2l2.3,4.1c0,0.1,0.1,0.1,0.1,0.2
			C27.3,17.3,27.1,17.5,26.9,17.5z M22.9,16.7h3.3l-1.6-2.8L22.9,16.7z"/>
	</g>
	<g id="XMLID_64_">
		<path id="XMLID_65_" class="st0" d="M22.9,16.7h3.3l-1.6-2.8L22.9,16.7z"/>
	</g>
</g>
</svg>
