<svg xmlns="http://www.w3.org/2000/svg" viewBox="0 0 56.45 14.31"><defs><style>.cls-1{fill:#fff;}.cls-2{fill:#d4ae2f;}</style></defs><title>Muva</title><g id="Capa_2" data-name="Capa 2"><g id="Capa_1-2" data-name="Capa 1"><path class="cls-1" d="M53.91,12.76a1.26,1.26,0,0,1,1.28-1.35,1.25,1.25,0,0,1,1.26,1.35,1.27,1.27,0,1,1-2.54,0Z"/><path class="cls-2" d="M41.07.31c-1.1-.19-1.47,1-1.72,1.74-.58,1.81-1.19,3.61-1.87,5.39a13.86,13.86,0,0,1-.6,1.37c-.15.3-.35.72-.73.82s-.69-.27-.84-.52c-1-1.64-2.55-7.57-2.55-7.57S32.5,0,31.18.22s-1,1.2-.89,1.68l3.17,11A2.49,2.49,0,0,0,36,14.31c2-.06,2.06-1.23,2.51-2.29S42,2.28,42,2.28,42.68.59,41.07.31Z"/><path class="cls-2" d="M52.66,12.5c-.11-.3-.23-.59-.35-.89-.28-.74-.57-1.47-.86-2.2-.38-.94-.75-1.88-1.13-2.81C49.7,5.06,49.06,3.52,48.45,2c-.37-.9-.88-1.71-2-1.76a1.56,1.56,0,0,0-.92.25,2.82,2.82,0,0,0-1,1.55c-.12.31-.21.63-.32.94l-.59,1.62c-.34,1-.68,1.91-1,2.87s-.65,1.79-1,2.69c-.24.69-.47,1.38-.75,2s-.57,1.35,0,1.78a1.76,1.76,0,0,0,.6.29,1.41,1.41,0,0,0,1.07-.17c.41-.27.5-.85.62-1.27s.21-.72.34-1.08a1.89,1.89,0,0,1,.46-.9,2.09,2.09,0,0,1,1.32-.33c.52,0,1,.06,1.57.11,2.54.27,2.85,1.62,3,2.15s.53,1.71,2,1.45S52.66,12.5,52.66,12.5ZM48.34,8.59a1.34,1.34,0,0,1-1.15.13l-.3-.08A3,3,0,0,1,45.5,8a1.06,1.06,0,0,1-.32-.67,3.4,3.4,0,0,1,.27-1.12c.13-.38.27-.76.43-1.13a1.07,1.07,0,0,1,.61-.69.64.64,0,0,1,.67.34,8.86,8.86,0,0,1,1.28,3C48.49,8,48.55,8.38,48.34,8.59Z"/><path class="cls-2" d="M27.63.28c-1.72-.2-1.69,1.25-1.69,1.25,0,.18,0,.36,0,.55,0,2,0,3.93,0,5.89a6.12,6.12,0,0,1-.45,2.39c-1,2-3.84,1.69-4.88,0s-.72-4-.68-6c0-.9,0-1.81.05-2.71,0,0,.19-1.27-1.32-1.36S17.3,1.84,17.3,1.84l-.05,6.51a3.31,3.31,0,0,0,.06.55,8,8,0,0,0,.45,1.66,6.44,6.44,0,0,0,1.76,2.51,5.56,5.56,0,0,0,3.2,1.15A5.21,5.21,0,0,0,28,11.1a6.27,6.27,0,0,0,.4-2l.16-7.22C28.68.37,27.63.28,27.63.28Z"/><path class="cls-2" d="M15.82,12.63,13.56.49A.63.63,0,0,0,12.94,0a.64.64,0,0,0-.58.37,1.42,1.42,0,0,0-.08.18c0,.07-.07.13-.1.2L12.06,1l-.15.31-.17.36c-.06.14-.13.27-.2.41s-.13.29-.2.43L11.12,3l-.22.46-.23.48c-.07.15-.15.31-.22.47s-.15.3-.22.45L10,5.25c-.06.13-.12.27-.19.4s-.12.24-.17.37-.11.21-.16.32l-.13.27-.09.19,0,.11L9.2,7,9,7.32v0l0,0A1.19,1.19,0,0,1,8,8a1.24,1.24,0,0,1-1-.62l0,0v0h0L6.69,7,3.53.39h0l0,0A.68.68,0,0,0,2.94,0a.64.64,0,0,0-.63.51L.24,11.67c-.06.3-.18.7-.21.94,0,0-.35,1.29,1.25,1.55a1.38,1.38,0,0,0,1.65-1.28.29.29,0,0,0,0-.09c0-.09,0-.14,0-.14l0-.57.42-3.9,0-.28A.53.53,0,0,1,4,7.42h.19a.37.37,0,0,1,.25.19,2.64,2.64,0,0,1,.2.37l2.12,4.38A1.19,1.19,0,0,0,8,13.16a1.18,1.18,0,0,0,1.16-.79L11.23,8c.06-.12.13-.26.2-.37a.37.37,0,0,1,.25-.19h.19a.53.53,0,0,1,.55.48l0,.28.34,3.23.09,1.28s0,1.73,1.6,1.47S15.82,12.63,15.82,12.63Z"/></g></g></svg>