<?xml version="1.0" encoding="utf-8"?>
<!-- Generator: Adobe Illustrator 16.0.0, SVG Export Plug-In . SVG Version: 6.00 Build 0)  -->
<!DOCTYPE svg PUBLIC "-//W3C//DTD SVG 1.1//EN" "http://www.w3.org/Graphics/SVG/1.1/DTD/svg11.dtd">
<svg version="1.1" id="Capa_1" xmlns="http://www.w3.org/2000/svg" xmlns:xlink="http://www.w3.org/1999/xlink" x="0px" y="0px"
	 width="125.157px" height="146.541px" viewBox="0 0 125.157 146.541" enable-background="new 0 0 125.157 146.541"
	 xml:space="preserve">
<g>
	<path fill="#19766C" d="M63.345,76.12c-14.284,0-25.471-10.927-25.471-24.875c0-0.522,0.423-0.945,0.945-0.945
		c0.521,0,0.946,0.423,0.946,0.945c0,12.888,10.357,22.983,23.58,22.983s23.58-10.096,23.58-22.983c0-0.522,0.422-0.945,0.945-0.945
		c0.521,0,0.943,0.423,0.943,0.945C88.814,65.193,77.627,76.12,63.345,76.12z"/>
	<path fill="#19766C" d="M95.893,134.771L95.893,134.771c-0.521,0-0.943-0.423-0.943-0.945l0.02-37.604
		c0.022-10.881-5.467-20.842-14.688-26.645c-0.441-0.278-0.575-0.862-0.298-1.304c0.28-0.441,0.864-0.576,1.304-0.296
		c9.775,6.151,15.598,16.712,15.57,28.247l-0.018,37.604C96.84,134.349,96.417,134.771,95.893,134.771z"/>
	<path fill="#19766C" d="M30.613,134.771L30.613,134.771c0.522,0,0.944-0.423,0.944-0.945l-0.02-37.604
		c-0.022-10.881,5.467-20.842,14.688-26.645c0.442-0.278,0.575-0.862,0.296-1.304c-0.278-0.441-0.863-0.576-1.303-0.296
		c-9.775,6.151-15.597,16.712-15.571,28.247l0.019,37.604C29.666,134.349,30.09,134.771,30.613,134.771z"/>
	<path fill="#19766C" d="M69.075,37.973h-10.68c-0.522,0-0.946-0.423-0.946-0.946c0-0.522,0.424-0.945,0.946-0.945h10.68
		c0.523,0,0.945,0.423,0.945,0.945C70.02,37.55,69.598,37.973,69.075,37.973z"/>
	<g>
		<g>
			<circle fill="#19766C" cx="73.936" cy="46.933" r="3.226"/>
			<circle fill="#19766C" cx="53.086" cy="46.933" r="3.226"/>
		</g>
	</g>
	<path fill="#19766C" d="M63.512,64.697c-3.269,0-5.374-1.934-6.009-3.85c-0.163-0.497,0.104-1.031,0.602-1.195
		c0.494-0.165,1.031,0.104,1.194,0.6c0.42,1.272,1.888,2.554,4.213,2.554c2.808,0,3.899-1.838,4.239-2.629
		c0.204-0.481,0.762-0.701,1.241-0.496c0.481,0.205,0.703,0.761,0.497,1.242C68.475,63.286,66.24,64.697,63.512,64.697z"/>
	<path fill="#19766C" d="M66.131,56.14h-4.198c-0.524,0-0.947-0.423-0.947-0.946c0-6.208,2.377-10.05,2.477-10.21
		c0.279-0.442,0.863-0.573,1.305-0.296c0.442,0.279,0.575,0.862,0.298,1.303c-0.038,0.062-1.949,3.204-2.167,8.258h3.232
		c0.521,0,0.945,0.423,0.945,0.945C67.077,55.716,66.653,56.14,66.131,56.14z"/>
	<g>
		<g>
			<path fill="#19766C" d="M51.674,55.72c-0.202,0-0.405-0.065-0.577-0.198c-0.414-0.32-0.489-0.914-0.17-1.327
				c1.249-1.612,3.829-2.348,4.12-2.426c0.505-0.135,1.022,0.162,1.158,0.666c0.137,0.503-0.159,1.022-0.662,1.16
				c-0.622,0.17-2.391,0.816-3.12,1.757C52.237,55.594,51.957,55.72,51.674,55.72z"/>
			<g>
				<path fill="#19766C" d="M75.345,55.654c-0.282,0-0.562-0.125-0.746-0.365c-0.736-0.948-2.506-1.59-3.123-1.757
					c-0.504-0.137-0.801-0.656-0.666-1.16c0.136-0.505,0.65-0.8,1.161-0.666c0.289,0.079,2.87,0.814,4.12,2.422
					c0.321,0.413,0.246,1.007-0.167,1.328C75.753,55.589,75.547,55.654,75.345,55.654z"/>
			</g>
		</g>
	</g>
	<path fill="#19766C" d="M92.958,40.724"/>
	<path fill="#19766C" d="M33.651,40.724"/>
	<path fill="#19766C" d="M87.791,52.191c-3.373,0-6.117-2.744-6.117-6.116v-16.85c0-1.493-8.665-6.472-18.328-6.472
		c-11.086,0-17.192,5.602-18.409,6.845v16.477c0,3.372-2.745,6.116-6.116,6.116c-0.522,0-0.945-0.423-0.945-0.946
		c0-0.522,0.423-0.945,0.945-0.945c2.33,0,4.224-1.895,4.224-4.225v-16.85c0-0.225,0.08-0.442,0.227-0.613
		c0.27-0.316,6.753-7.75,20.075-7.75c8.167,0,20.22,4.405,20.22,8.363v16.85c0,2.012,1.414,3.7,3.301,4.123
		c0.091-2.039,0.546-6.465,2.754-8.711c0.687-0.699,1.483-1.143,2.375-1.324c-0.445-14.886-12.612-26.005-28.646-26.005
		c-16.608,0-28.665,10.895-28.665,25.905v0.952c0,0.522-0.423,0.946-0.944,0.946c-0.523,0-0.946-0.423-0.946-0.946v-0.952
		c0-16.106,12.85-27.796,30.555-27.796c17.418,0,30.554,12.358,30.554,28.748c0,0.522-0.424,0.946-0.945,0.946
		c-0.775,0-1.423,0.278-1.987,0.851c-1.915,1.947-2.262,6.737-2.232,8.418c0.002,0.254-0.096,0.499-0.273,0.68
		C88.286,52.089,88.044,52.191,87.791,52.191z"/>
	<path fill="#19766C" d="M38.82,52.191c-0.521,0-0.945-0.423-0.945-0.945c0-0.092-0.121-9.286-4.138-9.286
		c-0.522,0-0.945-0.423-0.945-0.946c0-0.522,0.423-0.945,0.945-0.945c5.961,0,6.029,10.72,6.029,11.176
		C39.766,51.768,39.341,52.19,38.82,52.191L38.82,52.191z"/>
	<g>
		<g>
			<path fill="#19766C" d="M36.263,56.883c-3.01,0-5.457-2.448-5.457-5.457v-6.68c0-0.523,0.423-0.946,0.946-0.946
				c0.522,0,0.945,0.423,0.945,0.946v6.68c0,1.966,1.6,3.565,3.566,3.565c0.523,0,0.946,0.424,0.946,0.946
				C37.208,56.458,36.786,56.883,36.263,56.883z"/>
			<path fill="#19766C" d="M38.282,56.881h-2.019c-0.522,0-0.947-0.423-0.947-0.946s0.424-0.945,0.947-0.945h2.019
				c0.524,0,0.947,0.423,0.947,0.945S38.806,56.881,38.282,56.881z"/>
		</g>
	</g>
	<g>
		<g>
			<path fill="#19766C" d="M89.886,56.883c-0.523,0-0.945-0.424-0.945-0.946c0-0.522,0.422-0.946,0.945-0.946
				c1.967,0,3.567-1.599,3.567-3.565v-6.68c0-0.523,0.422-0.946,0.943-0.946c0.523,0,0.947,0.423,0.947,0.946v6.68
				C95.344,54.435,92.896,56.883,89.886,56.883z"/>
			<path fill="#19766C" d="M89.888,56.881h-2.018c-0.523,0-0.945-0.423-0.945-0.946s0.422-0.945,0.945-0.945h2.018
				c0.521,0,0.946,0.423,0.946,0.945S90.41,56.881,89.888,56.881z"/>
		</g>
	</g>
	<path fill="#19766C" d="M69.075,32.586h-10.68c-0.522,0-0.946-0.423-0.946-0.945c0-0.522,0.424-0.946,0.946-0.946h10.68
		c0.523,0,0.945,0.423,0.945,0.946C70.02,32.163,69.598,32.586,69.075,32.586z"/>
</g>
</svg>
